HIERARCHY
ROOT Hips
{
	OFFSET 0.000000 0.000000 0.000000
	CHANNELS 6 Xposition Yposition Zposition Xrotation Yrotation Zrotation
	JOINT LeftUpLeg_virtual
	{
		OFFSET 0.000000 0.000000 0.000000
		CHANNELS 3 Xrotation Yrotation Zrotation
		JOINT LeftUpLeg
		{
			OFFSET 13.026900 -6.336304 -1.092800
			CHANNELS 3 Xrotation Yrotation Zrotation
			JOINT LeftLeg
			{
				OFFSET 0.524474 -46.096886 9.782700
				CHANNELS 3 Xrotation Yrotation Zrotation
				JOINT LeftFoot
				{
					OFFSET -0.524474 -53.427422 -12.948200
					CHANNELS 3 Xrotation Yrotation Zrotation
					JOINT LeftToeBase
					{
						OFFSET 0.192200 -14.009700 16.364100
						CHANNELS 3 Xrotation Yrotation Zrotation
						JOINT LeftToe_End
						{
							OFFSET -1.784700 -0.561700 9.474800
							CHANNELS 3 Xrotation Yrotation Zrotation
							End Site
							{
								OFFSET 0 0 0
							}
						}
					}
				}
			}
		}
	}
	JOINT RightUpLeg_virtual
	{
		OFFSET 0.000000 0.000000 0.000000
		CHANNELS 3 Xrotation Yrotation Zrotation
		JOINT RightUpLeg
		{
			OFFSET -12.883000 -6.336304 -1.092800
			CHANNELS 3 Xrotation Yrotation Zrotation
			JOINT RightLeg
			{
				OFFSET -0.524587 -46.096825 9.782800
				CHANNELS 3 Xrotation Yrotation Zrotation
				JOINT RightFoot
				{
					OFFSET 0.524587 -53.427383 -12.948300
					CHANNELS 3 Xrotation Yrotation Zrotation
					JOINT RightToeBase
					{
						OFFSET -0.192200 -14.009700 16.364100
						CHANNELS 3 Xrotation Yrotation Zrotation
						JOINT RightToe_End
						{
							OFFSET 1.784700 -0.561700 9.474800
							CHANNELS 3 Xrotation Yrotation Zrotation
							End Site
							{
								OFFSET 0 0 0
							}
						}
					}
				}
			}
		}
	}
	JOINT Spine_virtual
	{
		OFFSET 0.000000 0.000000 0.000000
		CHANNELS 3 Xrotation Yrotation Zrotation
		JOINT Spine
		{
			OFFSET 0.072000 7.257294 -0.789700
			CHANNELS 3 Xrotation Yrotation Zrotation
			JOINT Spine1
			{
				OFFSET 0.000000 12.508769 -0.658067
				CHANNELS 3 Xrotation Yrotation Zrotation
				JOINT Spine1_split
				{
					OFFSET 0.000000 12.508769 -0.658067
					CHANNELS 3 Xrotation Yrotation Zrotation
					JOINT Spine2
					{
						OFFSET 0.000000 12.508769 -0.658067
						CHANNELS 3 Xrotation Yrotation Zrotation
						JOINT Neck_virtual
						{
							OFFSET 0.000000 0.000000 0.000000
							CHANNELS 3 Xrotation Yrotation Zrotation
							JOINT Neck
							{
								OFFSET 0.000000 14.033295 7.520400
								CHANNELS 3 Xrotation Yrotation Zrotation
								JOINT Head
								{
									OFFSET 0.000000 8.198502 5.703100
									CHANNELS 3 Xrotation Yrotation Zrotation
									JOINT HeadTop_End
									{
										OFFSET 0.000000 17.760803 13.332701
										CHANNELS 3 Xrotation Yrotation Zrotation
										End Site
										{
											OFFSET 0 0 0
										}
									}
								}
							}
						}
						JOINT LeftShoulder_virtual
						{
							OFFSET 0.000000 0.000000 0.000000
							CHANNELS 3 Xrotation Yrotation Zrotation
							JOINT LeftShoulder
							{
								OFFSET 6.292450 5.785301 -0.669000
								CHANNELS 3 Xrotation Yrotation Zrotation
								JOINT LeftShoulder_split
								{
									OFFSET 6.292450 5.785301 -0.669000
									CHANNELS 3 Xrotation Yrotation Zrotation
									JOINT LeftArm
									{
										OFFSET 13.907140 -6.093903 1.965100
										CHANNELS 3 Xrotation Yrotation Zrotation
										JOINT LeftForeArm
										{
											OFFSET 34.140198 0.000000 0.000000
											CHANNELS 3 Xrotation Yrotation Zrotation
											JOINT LeftHand
											{
												OFFSET 40.960209 0.000000 0.000000
												CHANNELS 3 Xrotation Yrotation Zrotation
												End Site
												{
													OFFSET 0 0 0
												}
											}
										}
									}
								}
							}
						}
						JOINT RightShoulder_virtual
						{
							OFFSET 0.000000 0.000000 0.000000
							CHANNELS 3 Xrotation Yrotation Zrotation
							JOINT RightShoulder
							{
								OFFSET -6.292450 5.785301 -0.669000
								CHANNELS 3 Xrotation Yrotation Zrotation
								JOINT RightShoulder_split
								{
									OFFSET -6.292450 5.785301 -0.669000
									CHANNELS 3 Xrotation Yrotation Zrotation
									JOINT RightArm
									{
										OFFSET -13.907140 -6.093903 1.965100
										CHANNELS 3 Xrotation Yrotation Zrotation
										JOINT RightForeArm
										{
											OFFSET -34.140198 0.000000 0.000000
											CHANNELS 3 Xrotation Yrotation Zrotation
											JOINT RightHand
											{
												OFFSET -40.960209 0.000000 0.000000
												CHANNELS 3 Xrotation Yrotation Zrotation
												End Site
												{
													OFFSET 0 0 0
												}
											}
										}
									}
								}
							}
						}
					}
				}
			}
		}
	}
}
MOTION
Frames: 9
Frame Time: 0.03333333
-10.231293 108.183372 104.239609 0.000000 0.000000 0.000000 23.499524 13.645244 -7.452574 -36.105562 -2.068653 -7.378296 34.931493 -4.746681 -3.209407 -21.447431 2.410903 10.815707 -0.349020 0.000004 -0.000000 0.000000 0.000000 0.000000 23.499524 13.645244 -7.452574 -56.775729 -5.685173 -14.279602 51.399448 -7.331631 0.631220 11.424621 -4.034871 16.210428 -11.228170 -0.000001 -0.000002 0.000000 0.000000 0.000000 23.499524 13.645244 -7.452574 9.563440 0.543997 -2.742515 -0.471735 1.782879 -0.358118 0.000000 0.000000 0.000000 0.000000 0.000000 0.000000 -0.315421 2.367528 -0.492585 -11.049974 -0.300771 0.541620 -9.090197 2.277659 -2.833870 0.000000 0.000000 0.000000 -0.315421 2.367528 -0.492585 0.804511 -1.055563 -19.731161 0.000000 0.000000 0.000000 11.314136 -4.215696 -51.272553 0.000020 -61.671807 0.000026 0.000000 0.000000 0.000000 -0.315421 2.367528 -0.492585 0.318342 6.828689 17.985686 0.000000 0.000000 0.000000 14.222251 -10.989029 46.953862 -0.000017 67.377801 0.000018 0.000000 0.000000 0.000000 
-9.930595 108.372086 110.699020 0.000000 0.000000 0.000000 24.039011 14.830909 -8.191230 -31.524666 -5.350161 -6.317239 32.662808 -2.718754 -3.754723 -24.246792 1.137131 9.518968 -0.363120 0.000001 0.000002 0.000000 0.000000 0.000000 24.039011 14.830909 -8.191230 -60.542940 -4.824177 -14.238790 45.461838 -6.840493 0.233789 12.258989 -6.478256 14.644662 -10.982322 -0.000000 0.000001 0.000000 0.000000 0.000000 24.039011 14.830909 -8.191230 9.244845 -0.096381 -2.312898 -0.374504 1.775979 -0.381386 0.000000 0.000000 0.000000 0.000000 0.000000 0.000000 -0.232038 2.353977 -0.505843 -11.041550 -0.226222 0.447398 -9.369437 2.134342 -2.939963 0.000000 0.000000 0.000000 -0.232038 2.353977 -0.505843 0.850977 -1.055168 -19.445718 0.000000 0.000000 0.000000 11.378941 -4.063372 -51.572610 0.000012 -61.739617 -0.000008 0.000000 0.000000 0.000000 -0.232038 2.353977 -0.505843 0.330580 6.717016 17.586544 0.000000 0.000000 0.000000 14.906736 -11.096829 47.280735 0.000042 67.421187 -0.000021 0.000000 0.000000 0.000000 
-9.679039 107.771461 117.319977 0.000000 0.000000 0.000000 24.354045 15.724231 -8.343538 -26.733347 -7.861215 -5.295222 30.837792 -0.477623 -4.231192 -27.455118 -0.336303 8.076267 -0.344505 0.000004 -0.000005 0.000000 0.000000 0.000000 24.354045 15.724231 -8.343538 -64.572567 -1.566374 -13.955367 41.228057 -9.550531 0.037591 13.857645 -5.009106 15.923702 -10.518625 -0.000004 -0.000001 0.000000 0.000000 0.000000 24.354045 15.724231 -8.343538 8.868394 -0.771870 -2.585774 -0.280805 1.810330 -0.395186 0.000000 0.000000 0.000000 0.000000 0.000000 0.000000 -0.152856 2.438997 -0.533947 -11.165467 -0.164569 0.434152 -9.915527 2.229087 -3.134632 0.000000 0.000000 0.000000 -0.152856 2.438997 -0.533947 0.890500 -1.054639 -19.202932 0.000000 0.000000 0.000000 11.762117 -4.398518 -51.352972 0.000016 -61.704352 0.000026 0.000000 0.000000 0.000000 -0.152856 2.438997 -0.533947 0.386612 5.917547 17.090633 0.000000 0.000000 0.000000 15.677212 -11.013520 47.931761 -0.000002 67.967124 0.000013 0.000000 0.000000 0.000000 
-9.456169 106.416443 123.904114 0.000000 0.000000 0.000000 24.549204 16.788561 -7.895890 -21.952971 -10.254312 -4.396912 29.298144 1.557844 -5.316003 -30.777560 -1.744509 6.861392 -0.371583 0.000006 -0.000001 0.000000 0.000000 0.000000 24.549204 16.788561 -7.895890 -67.838696 0.899895 -13.740926 40.950327 -9.650979 0.856411 8.831729 -2.255122 15.673573 -5.920130 0.000001 -0.000001 0.000000 0.000000 0.000000 24.549204 16.788561 -7.895890 8.598471 -1.629848 -3.453879 -0.193257 1.830917 -0.399965 0.000000 0.000000 0.000000 0.000000 0.000000 0.000000 -0.080066 2.550094 -0.552131 -11.349194 -0.106719 0.463410 -10.802971 2.392365 -3.333841 0.000000 0.000000 0.000000 -0.080066 2.550094 -0.552131 0.929112 -1.053975 -18.965697 0.000000 0.000000 0.000000 12.311448 -4.649087 -50.975556 -0.000019 -62.095640 -0.000036 0.000000 0.000000 0.000000 -0.080066 2.550094 -0.552131 0.419721 5.349362 16.868037 0.000000 0.000000 0.000000 16.513312 -11.074452 48.601249 0.000011 68.737480 -0.000001 0.000000 0.000000 0.000000 
-9.216668 104.973015 130.501129 0.000000 0.000000 0.000000 24.726393 17.906924 -7.772400 -17.477424 -12.536416 -3.085469 28.181683 3.508056 -6.387468 -32.461727 -3.044533 5.936075 -1.960404 -0.000002 0.000003 0.000000 0.000000 0.000000 24.726393 17.906924 -7.772400 -70.615393 2.193361 -13.394734 39.788072 -9.773903 1.027108 -0.105598 0.220700 13.954234 0.069562 0.000003 -0.000002 0.000000 0.000000 0.000000 24.726393 17.906924 -7.772400 8.537670 -2.404181 -3.889489 -0.115431 1.784951 -0.368407 0.000000 0.000000 0.000000 0.000000 0.000000 0.000000 -0.016081 2.602106 -0.532304 -11.543206 -0.023776 0.481228 -11.682107 2.611778 -3.571832 0.000000 0.000000 0.000000 -0.016081 2.602106 -0.532304 0.966233 -1.053172 -18.737582 0.000000 0.000000 0.000000 12.890246 -4.845147 -50.708001 0.000034 -62.162610 0.000044 0.000000 0.000000 0.000000 -0.016081 2.602106 -0.532304 0.466171 4.493186 16.464866 0.000000 0.000000 0.000000 17.176389 -10.524329 49.400969 -0.000015 69.143631 0.000039 0.000000 0.000000 0.000000 
-8.965025 103.489296 137.026001 0.000000 0.000000 0.000000 24.835200 19.053567 -8.313238 -13.867296 -14.900857 -1.451585 28.704741 6.057328 -7.003519 -32.032030 -4.622515 5.903995 -6.997652 -0.000003 0.000001 0.000000 0.000000 0.000000 24.835200 19.053567 -8.313238 -72.695404 2.818340 -12.867924 37.265246 -10.486512 0.800071 -6.590505 0.696857 12.129429 8.166620 0.000001 0.000003 0.000000 0.000000 0.000000 24.835200 19.053567 -8.313238 8.734641 -3.025262 -3.597390 -0.057075 1.681101 -0.295425 0.000000 0.000000 0.000000 0.000000 0.000000 0.000000 0.037381 2.558249 -0.464646 -11.734189 0.092625 0.455021 -12.504899 2.976104 -3.825967 0.000000 0.000000 0.000000 0.037381 2.558249 -0.464646 0.999099 -1.052341 -18.535740 0.000000 0.000000 0.000000 13.416202 -5.030873 -50.764367 0.000018 -61.466484 0.000011 0.000000 0.000000 0.000000 0.037381 2.558249 -0.464646 0.494754 3.824031 16.050663 0.000000 0.000000 0.000000 17.727462 -10.312255 50.208191 -0.000038 69.740295 0.000035 0.000000 0.000000 0.000000 
-8.623930 102.178680 143.782501 0.000000 0.000000 0.000000 24.755496 20.308328 -9.381570 -10.492217 -17.294210 1.015695 30.192390 7.121781 -7.735566 -29.892627 -4.744038 5.033487 -15.244373 -0.000001 0.000002 0.000000 0.000000 0.000000 24.755496 20.308328 -9.381570 -73.034694 1.126925 -12.761404 35.736585 -10.288357 1.455293 -9.590356 -0.114183 8.564931 6.207013 -0.000001 -0.000003 0.000000 0.000000 0.000000 24.755496 20.308328 -9.381570 9.051911 -3.640975 -2.674905 -0.037759 1.490354 -0.165260 0.000000 0.000000 0.000000 0.000000 0.000000 0.000000 0.051802 2.369443 -0.346530 -11.905891 0.268336 0.340579 -13.135277 3.643599 -4.131532 0.000000 0.000000 0.000000 0.051802 2.369443 -0.346530 1.032000 -1.050994 -18.334296 0.000000 0.000000 0.000000 13.861116 -3.704935 -51.431198 0.000037 -60.970285 0.000050 0.000000 0.000000 0.000000 0.051802 2.369443 -0.346530 0.508881 3.326463 15.590959 0.000000 0.000000 0.000000 18.005917 -9.876833 50.944926 -0.000024 69.876462 0.000044 0.000000 0.000000 0.000000 
-8.151018 100.935616 150.698120 0.000000 0.000000 0.000000 24.533853 21.743677 -10.932475 -8.718059 -18.577426 3.322006 33.994080 7.332832 -7.749744 -23.643688 -4.013599 4.178242 -26.943594 0.000003 0.000000 0.000000 0.000000 0.000000 24.533853 21.743677 -10.932475 -72.581695 -2.801594 -12.972483 35.724468 -9.012499 2.475213 -5.960889 -1.036266 4.342995 3.141859 0.000001 -0.000001 0.000000 0.000000 0.000000 24.533853 21.743677 -10.932475 9.353768 -4.222963 -1.185047 -0.054667 1.206745 -0.010325 0.000000 0.000000 0.000000 0.000000 0.000000 0.000000 0.028530 2.038677 -0.191308 -12.043358 0.485842 0.127691 -13.395527 4.487468 -4.632055 0.000000 0.000000 0.000000 0.028530 2.038677 -0.191308 1.065861 -1.052110 -18.121699 0.000000 0.000000 0.000000 14.192328 -1.851447 -52.616953 0.000037 -60.387553 0.000049 0.000000 0.000000 0.000000 0.028530 2.038677 -0.191308 0.510078 3.132400 15.339715 0.000000 0.000000 0.000000 18.341635 -9.466380 51.256472 -0.000007 70.327780 0.000006 0.000000 0.000000 0.000000 
-7.515602 100.003365 157.598206 0.000000 0.000000 0.000000 24.441234 23.328086 -12.316239 -9.706892 -20.059753 5.051479 39.516042 8.125618 -7.926552 -10.769164 -1.331286 1.979646 -41.443132 0.038891 -0.692383 0.000000 0.000000 0.000000 24.441234 23.328086 -12.316239 -71.705156 -7.354479 -13.284977 36.935891 -4.105248 2.790329 2.429694 -1.406063 1.839174 0.406528 -0.000003 0.000000 0.000000 0.000000 0.000000 24.441234 23.328086 -12.316239 9.409852 -4.594758 0.004712 -0.135265 0.950764 0.101547 0.000000 0.000000 0.000000 0.000000 0.000000 0.000000 -0.060192 1.684487 -0.048541 -12.134703 0.666456 -0.080016 -13.337361 5.131680 -5.298089 0.000000 0.000000 0.000000 -0.060192 1.684487 -0.048541 1.091563 -1.054070 -17.957976 0.000000 0.000000 0.000000 14.536103 -0.381615 -53.653537 -0.000012 -59.911066 -0.000040 0.000000 0.000000 0.000000 -0.060192 1.684487 -0.048541 0.505953 3.125452 15.264255 0.000000 0.000000 0.000000 18.637520 -9.040570 51.377998 0.000011 70.359527 -0.000009 0.000000 0.000000 0.000000 
